<?xml version="1.0" encoding="UTF-8" ?>
<!DOCTYPE svg PUBLIC "-//W3C//DTD SVG 1.1//EN"
  "http://www.w3.org/Graphics/SVG/1.1/DTD/svg11.dtd">
<svg
  xmlns="http://www.w3.org/2000/svg"
  xmlns:xlink="http://www.w3.org/1999/xlink"
  height="252px"
  version="1.1"
  viewBox="-0.5 -0.5 761 252"
  width="761px"
>
  <style>
    ellipse {
      fill: white;
      stroke: #000;
    }

    path {
      stroke: #000;
    }

    text {
      fill: #000;
    }

    @media (prefers-color-scheme: dark) {
      ellipse {
        fill: black;
        stroke: #e3e3e3;
      }
    
      path {
        stroke: #e3e3e3;
      }

      text {
        fill: #e3e3e3;
      }
  }
  </style>
  <defs>
    <clipPath id="mx-clip--1-29-64-34-0">
      <rect
        height="34"
        width="64"
        x="-1"
        y="29"
      />
    </clipPath>
    <clipPath id="mx-clip-59-29-144-34-0">
      <rect
        height="34"
        width="144"
        x="59"
        y="29"
      />
    </clipPath>
    <clipPath id="mx-clip--1-59-64-34-0">
      <rect
        height="34"
        width="64"
        x="-1"
        y="59"
      />
    </clipPath>
    <clipPath id="mx-clip-59-59-144-34-0">
      <rect
        height="34"
        width="144"
        x="59"
        y="59"
      />
    </clipPath>
    <clipPath id="mx-clip-59-89-144-34-0">
      <rect
        height="34"
        width="144"
        x="59"
        y="89"
      />
    </clipPath>
    <clipPath id="mx-clip-259-29-64-34-0">
      <rect
        height="34"
        width="64"
        x="259"
        y="29"
      />
    </clipPath>
    <clipPath id="mx-clip-319-29-144-34-0">
      <rect
        height="34"
        width="144"
        x="319"
        y="29"
      />
    </clipPath>
    <clipPath id="mx-clip-319-59-144-34-0">
      <rect
        height="34"
        width="144"
        x="319"
        y="59"
      />
    </clipPath>
    <clipPath id="mx-clip-319-89-144-34-0">
      <rect
        height="34"
        width="144"
        x="319"
        y="89"
      />
    </clipPath>
    <clipPath id="mx-clip-319-119-144-34-0">
      <rect
        height="34"
        width="144"
        x="319"
        y="119"
      />
    </clipPath>
    <clipPath id="mx-clip-319-149-144-34-0">
      <rect
        height="34"
        width="144"
        x="319"
        y="149"
      />
    </clipPath>
    <clipPath id="mx-clip-319-179-144-34-0">
      <rect
        height="34"
        width="144"
        x="319"
        y="179"
      />
    </clipPath>
    <clipPath id="mx-clip-519-29-64-34-0">
      <rect
        height="34"
        width="64"
        x="519"
        y="29"
      />
    </clipPath>
    <clipPath id="mx-clip-579-29-144-34-0">
      <rect
        height="34"
        width="144"
        x="579"
        y="29"
      />
    </clipPath>
    <clipPath id="mx-clip-519-59-64-34-0">
      <rect
        height="34"
        width="64"
        x="519"
        y="59"
      />
    </clipPath>
    <clipPath id="mx-clip-579-59-144-34-0">
      <rect
        height="34"
        width="144"
        x="579"
        y="59"
      />
    </clipPath>
    <clipPath id="mx-clip-519-89-64-34-0">
      <rect
        height="34"
        width="64"
        x="519"
        y="89"
      />
    </clipPath>
    <clipPath id="mx-clip-579-89-144-34-0">
      <rect
        height="34"
        width="144"
        x="579"
        y="89"
      />
    </clipPath>
    <clipPath id="mx-clip-519-189-64-34-0">
      <rect
        height="34"
        width="64"
        x="519"
        y="189"
      />
    </clipPath>
    <clipPath id="mx-clip-579-189-144-34-0">
      <rect
        height="34"
        width="144"
        x="579"
        y="189"
      />
    </clipPath>
    <clipPath id="mx-clip-579-219-144-34-0">
      <rect
        height="34"
        width="144"
        x="579"
        y="219"
      />
    </clipPath>
  </defs>
  <g>
    <path
      d="M 1 31 L 1 1 L 201 1 L 201 31"
fill="none"
      pointer-events="all"
      stroke="rgb(0, 0, 0)"
      stroke-miterlimit="10"
      stroke-width="2"
    />
    <path
      d="M 1 31 L 1 121 L 201 121 L 201 31"
      fill="none"
      stroke-width="2"
    />
    <path
      d="M 1 31 L 201 31"
      fill="none"
      stroke-width="2"
    />
    <path
      d="M 61 31 L 61 61 L 61 91 L 61 121"
      fill="none"
      stroke-width="2"
    />
    <g
      direction="ltr"
      font-family="Courier New"
      font-size="18px"
      pointer-events="none"
      text-anchor="middle"
    >
      <text
        x="100.5"
        y="23.5"
      >
        images
      </text>
    </g>
    <g
      clip-path="url(#mx-clip--1-29-64-34-0)"
      direction="ltr"

      font-family="Courier New"
      font-size="18px"
      pointer-events="none"
      text-anchor="middle"
    >
      <text
        x="30.5"
        y="53.5"
      >
        PK
      </text>
    </g>

    <g
      font-family="Courier New"
      font-size="18px"
    >
      <text
        x="130.5"
        y="53.5"
      >
        id
      </text>
    </g>
    <path
      d="M 1 61 L 61 61 L 61 91 L 1 91 L 1 61"
      fill="none"
      stroke-width="2"
    />
    <g
      clip-path="url(#mx-clip--1-59-64-34-0)"
      direction="ltr"

      font-family="Courier New"
      font-size="18px"
      pointer-events="none"
      text-anchor="middle"
    >
      <text
        x="30.5"
        y="83.5"
      >
        FK
      </text>
    </g>
    <path
      d="M 61 61 L 201 61 L 201 91 L 61 91 L 61 61"
      fill="none"
      stroke-width="2"
    />
    <g
      clip-path="url(#mx-clip-59-59-144-34-0)"
      direction="ltr"

      font-family="Courier New"
      font-size="18px"
      pointer-events="none"
      text-anchor="middle"
    >
      <text
        x="130.5"
        y="83.5"
      >
        product_id
      </text>
    </g>
    <g
      clip-path="url(#mx-clip-59-89-144-34-0)"
      direction="ltr"

      font-family="Courier New"
      font-size="18px"
      pointer-events="none"
      text-anchor="middle"
    >
      <text
        x="130.5"
        y="113.5"
      >
        path
      </text>
    </g>
    <path
      d="M 261 31 L 261 1 L 461 1 L 461 31"
fill="none"
      stroke-width="2"
    />
    <path
      d="M 261 31 L 261 211 L 461 211 L 461 31"
      fill="none"
      stroke-width="2"
    />
    <path
      d="M 261 31 L 461 31"
      fill="none"
      stroke-width="2"
    />
    <path
      d="M 321 31 L 321 61 L 321 91 L 321 121 L 321 151 L 321 181 L 321 211"
      fill="none"
      stroke-width="2"
    />
    <g
      direction="ltr"
      font-family="Courier New"
      font-size="18px"
      pointer-events="none"
      text-anchor="middle"
    >
      <text

        x="360.5"
        y="23.5"
      >
        products
      </text>
    </g>
    <path
      d="M 261 31 L 461 31 L 461 61 L 261 61 L 261 31"
      fill="none"
      stroke-width="2"
    />
    <g
      clip-path="url(#mx-clip-259-29-64-34-0)"
      direction="ltr"

      font-family="Courier New"
      font-size="18px"
      pointer-events="none"
      text-anchor="middle"
    >
      <text
        x="290.5"
        y="53.5"
      >
        PK
      </text>
    </g>
    <g
      clip-path="url(#mx-clip-319-29-144-34-0)"
      direction="ltr"

      font-family="Courier New"
      font-size="18px"
      pointer-events="none"
      text-anchor="middle"
    >
      <text
        x="390.5"
        y="53.5"
      >
        id
      </text>
    </g>
    <g
      clip-path="url(#mx-clip-319-59-144-34-0)"
      direction="ltr"

      font-family="Courier New"
      font-size="18px"
      pointer-events="none"
      text-anchor="middle"
    >
      <text
        x="390.5"
        y="83.5"
      >
        name
      </text>
    </g>
    <path
      d="M 261 91 L 461 91 L 461 121 L 261 121 L 261 91"
      fill="none"
      stroke-width="2"
    />
    <g
      clip-path="url(#mx-clip-319-89-144-34-0)"
      direction="ltr"

      font-family="Courier New"
      font-size="18px"
      pointer-events="none"
      text-anchor="middle"
    >
      <text
        x="390.5"
        y="113.5"
      >
        price
      </text>
    </g>
    <g
      clip-path="url(#mx-clip-319-119-144-34-0)"
      direction="ltr"

      font-family="Courier New"
      font-size="18px"
      pointer-events="none"
      text-anchor="middle"
    >
      <text
        x="390.5"
        y="143.5"
      >
        description
      </text>
    </g>
    <path
      d="M 261 151 L 461 151 L 461 181 L 261 181 L 261 151"
      fill="none"
      stroke-width="2"
    />
    <g
      clip-path="url(#mx-clip-319-149-144-34-0)"
      direction="ltr"

      font-family="Courier New"
      font-size="18px"
      pointer-events="none"
      text-anchor="middle"
    >
      <text
        x="390.5"
        y="173.5"
      >
        quantity
      </text>
    </g>
    <g
      clip-path="url(#mx-clip-319-179-144-34-0)"
      direction="ltr"

      font-family="Courier New"
      font-size="18px"
      pointer-events="none"
      text-anchor="middle"
    >
      <text
        x="390.5"
        y="203.5"
      >
        available
      </text>
    </g>
    <path
      d="M 521 31 L 521 1 L 721 1 L 721 31"
fill="none"
      stroke-width="2"
    />
    <path
      d="M 521 31 L 521 121 L 721 121 L 721 31"
      fill="none"
      stroke-width="2"
    />
    <path
      d="M 521 31 L 721 31"
      fill="none"
      stroke-width="2"
    />
    <path
      d="M 581 31 L 581 61 L 581 91 L 581 121"
      fill="none"
      stroke-width="2"
    />
    <g
      direction="ltr"

      font-family="Courier New"
      font-size="18px"
      pointer-events="none"
      text-anchor="middle"
    >
      <text
        x="620.5"
        y="23.5"
      >
        product_tag
      </text>
    </g>
    <g
      clip-path="url(#mx-clip-519-29-64-34-0)"
      direction="ltr"

      font-family="Courier New"
      font-size="18px"
      pointer-events="none"
      text-anchor="middle"
    >
      <text
        x="550.5"
        y="53.5"
      >
        PK
      </text>
    </g>
    <g
      clip-path="url(#mx-clip-579-29-144-34-0)"
      direction="ltr"

      font-family="Courier New"
      font-size="18px"
      pointer-events="none"
      text-anchor="middle"
    >
      <text
        x="650.5"
        y="53.5"
      >
        id
      </text>
    </g>
    <path
      d="M 521 61 L 721 61 L 721 91 L 521 91 L 521 61"
      fill="none"
      stroke-width="2"
    />
    <g
      clip-path="url(#mx-clip-519-59-64-34-0)"
      direction="ltr"

      font-family="Courier New"
      font-size="18px"
      pointer-events="none"
      text-anchor="middle"
    >
      <text
        x="550.5"
        y="83.5"
      >
        FK
      </text>
    </g>
    <g
      clip-path="url(#mx-clip-579-59-144-34-0)"
      direction="ltr"

      font-family="Courier New"
      font-size="18px"
      pointer-events="none"
      text-anchor="middle"
    >
      <text
        x="650.5"
        y="83.5"
      >
        product_id
      </text>
    </g>
    <g
      clip-path="url(#mx-clip-519-89-64-34-0)"
      direction="ltr"

      font-family="Courier New"
      font-size="18px"
      pointer-events="none"
      text-anchor="middle"
    >
      <text
        x="550.5"
        y="113.5"
      >
        FK
      </text>
    </g>
    <g
      clip-path="url(#mx-clip-579-89-144-34-0)"
      direction="ltr"

      font-family="Courier New"
      font-size="18px"
      pointer-events="none"
      text-anchor="middle"
    >
      <text
        x="650.5"
        y="113.5"
      >
        tag_id
      </text>
    </g>
    <path
      d="M 521 191 L 521 161 L 721 161 L 721 191"
fill="none"
      stroke-width="2"
    />
    <path
      d="M 521 191 L 521 251 L 721 251 L 721 191"
      fill="none"
      stroke-width="2"
    />
    <path
      d="M 581 191 L 581 221 L 581 251"
      fill="none"
      stroke-width="2"
    />
    <g
      direction="ltr"

      font-family="Courier New"
      font-size="18px"
      pointer-events="none"
      text-anchor="middle"
    >
      <text
        x="620.5"
        y="183.5"
      >
        tags
      </text>
    </g>
    <path
      d="M 521 191 L 721 191 L 721 221 L 521 221 L 521 191"
      fill="none"
      stroke-width="2"
    />
    <g
      clip-path="url(#mx-clip-519-189-64-34-0)"
      direction="ltr"

      font-family="Courier New"
      font-size="18px"
      pointer-events="none"
      text-anchor="middle"
    >
      <text
        x="550.5"
        y="213.5"
      >
        PK
      </text>
    </g>
    <g
      clip-path="url(#mx-clip-579-189-144-34-0)"
      direction="ltr"

      font-family="Courier New"
      font-size="18px"
      pointer-events="none"
      text-anchor="middle"
    >
      <text
        x="650.5"
        y="213.5"
      >
        id
      </text>
    </g>
    <g
      clip-path="url(#mx-clip-579-219-144-34-0)"
      direction="ltr"

      font-family="Courier New"
      font-size="18px"
      pointer-events="none"
      text-anchor="middle"
    >
      <text
        x="650.5"
        y="243.5"
      >
        label
      </text>
    </g>
    <path
      d="M 261 46 L 231 46 L 231 76 L 201 76"
      fill="none"
      stroke-width="2"
    />
    <path
      d="M 256.5 50.5 L 256.5 41.5 M 252 50.5 L 252 41.5"
      fill="none"
      stroke-width="2"
    />
    <ellipse
      cx="214.5"
      cy="76"
      pointer-events="none"
      rx="3"
      ry="3"
      stroke-width="2"
    />
    <path
      d="M 201 80.5 L 210 76 L 201 71.5"
      fill="none"
      stroke-width="2"
    />
    <path
      d="M 461 46 L 491 46 L 491 61 L 491 76 L 521 76"
      fill="none"
      stroke-width="2"
    />
    <path
      d="M 465.5 41.5 L 465.5 50.5 M 470 41.5 L 470 50.5"
      fill="none"
      stroke-width="2"
    />
    <ellipse
      cx="507.5"
      cy="76"
      pointer-events="none"
      rx="3"
      ry="3"
      stroke-width="2"
    />
    <path
      d="M 521 71.5 L 512 76 L 521 80.5"
      fill="none"
      stroke-width="2"
    />
    <path
      d="M 721 206 L 751 206 L 751 106 L 721 106"
      fill="none"
      stroke-width="2"
    />
    <path
      d="M 725.5 201.5 L 725.5 210.5 M 730 201.5 L 730 210.5"
      fill="none"
      stroke-width="2"
    />
    <ellipse
      cx="734.5"
      cy="106"
      pointer-events="none"
      rx="3"
      ry="3"
      stroke-width="2"
    />
    <path
      d="M 721 110.5 L 730 106 L 721 101.5"
      fill="none"
      stroke-width="2"
    />
  </g>
</svg>
