<?xml version="1.0" encoding="UTF-8" standalone="no" ?>
<!DOCTYPE svg PUBLIC "-//W3C//DTD SVG 1.1//EN"
  "http://www.w3.org/Graphics/SVG/1.1/DTD/svg11.dtd">
<!-- Generated by graphviz version 7.0.5 (20221223.1930)
 -->
<!-- Pages: 1 -->
<svg
  width="335pt"
  height="510pt"
  viewBox="0.00 0.00 335.00 509.60"
  xmlns="http://www.w3.org/2000/svg"
  xmlns:xlink="http://www.w3.org/1999/xlink"
>
  <g
    id="page0,1_graph0"
    class="graph"
    transform="scale(1 1) rotate(0) translate(4 505.6)"
  >
    <!-- hidden11 -->
    <g
      id="node1"
      class="node"
    >
      <title>hidden11</title>
      <polygon
        fill="none"
        stroke="none"
        points="160,-501.6 88,-501.6 88,-429.6 160,-429.6 160,-501.6"
      />
      <text
        text-anchor="start"
        x="116.81"
        y="-462.4"
        font-family="Times"
        font-style="italic"
        font-size="14.00"
        fill="#000000"
      >
        f
      </text>
      <text
        text-anchor="start"
        x="120.69"
        y="-462.4"
        font-family="Times"
        font-size="14.00"
        fill="#000000"
      >
        ₁
      </text>
    </g>
    <!-- if1 -->
    <g
      id="node2"
      class="node"
    >
      <title>if1</title>
      <polygon
        fill="#ffffff"
        stroke="black"
        points="232,-501.6 178,-465.6 232,-429.6 286,-465.6 232,-501.6"
      />
      <text
        text-anchor="start"
        x="223.64"
        y="-462.4"
        font-family="Times"
        font-style="italic"
        font-size="14.00"
        fill="#000000"
      >
        v
      </text>
      <text
        text-anchor="start"
        x="229.86"
        y="-462.4"
        font-family="Times"
        font-size="14.00"
        fill="#000000"
      >
        ₁
      </text>
    </g>
    <!-- if2 -->
    <g
      id="node3"
      class="node"
    >
      <title>if2</title>
      <polygon
        fill="#ffffff"
        stroke="black"
        points="124,-376.8 70,-340.8 124,-304.8 178,-340.8 124,-376.8"
      />
      <text
        text-anchor="start"
        x="115.64"
        y="-337.6"
        font-family="Times"
        font-style="italic"
        font-size="14.00"
        fill="#000000"
      >
        v
      </text>
      <text
        text-anchor="start"
        x="121.86"
        y="-337.6"
        font-family="Times"
        font-size="14.00"
        fill="#000000"
      >
        ₃
      </text>
    </g>
    <!-- if1&#45;&gt;if2 -->
    <g
      id="edge1"
      class="edge"
    >
      <title>if1&#45;&gt;if2</title>
      <path
        fill="none"
        stroke="black"
        d="M212.44,-442.36C194.93,-422.45 169.13,-393.12 149.91,-371.26"
      />
      <polygon
        fill="black"
        stroke="black"
        points="143.41,-363.87 153.4,-368.41 146.71,-367.63 150.02,-371.38 150.02,-371.38 150.02,-371.38 146.71,-367.63 146.64,-374.35 143.41,-363.87 143.41,-363.87"
      />
      <text
        text-anchor="start"
        x="185"
        y="-400"
        font-family="Times"
        font-size="14.00"
      />
      <text
        text-anchor="start"
        x="188.5"
        y="-400"
        font-family="Times"
        font-style="italic"
        font-size="14.00"
      >
        e
      </text>
      <text
        text-anchor="start"
        x="194.71"
        y="-400"
        font-family="Times"
        font-size="14.00"
      >
        ₃
      </text>
    </g>
    <!-- hidden21 -->
    <g
      id="node4"
      class="node"
    >
      <title>hidden21</title>
      <polygon
        fill="none"
        stroke="none"
        points="268,-376.8 196,-376.8 196,-304.8 268,-304.8 268,-376.8"
      />
      <text
        text-anchor="start"
        x="224.81"
        y="-337.6"
        font-family="Times"
        font-style="italic"
        font-size="14.00"
        fill="#000000"
      >
        f
      </text>
      <text
        text-anchor="start"
        x="228.69"
        y="-337.6"
        font-family="Times"
        font-size="14.00"
        fill="#000000"
      >
        ₂
      </text>
    </g>
    <!-- if1&#45;&gt;hidden21 -->
    <!-- negative -->
    <g
      id="node8"
      class="node"
    >
      <title>negative</title>
      <ellipse
        fill="#ffffff"
        stroke="black"
        cx="291"
        cy="-250.8"
        rx="36"
        ry="36"
      />
      <text
        text-anchor="start"
        x="282.64"
        y="-247.6"
        font-family="Times"
        font-style="italic"
        font-size="14.00"
        fill="#000000"
      >
        v
      </text>
      <text
        text-anchor="start"
        x="288.86"
        y="-247.6"
        font-family="Times"
        font-size="14.00"
        fill="#000000"
      >
        ₂
      </text>
    </g>
    <!-- if1&#45;&gt;negative -->
    <g
      id="edge3"
      class="edge"
    >
      <title>if1&#45;&gt;negative</title>
      <path
        fill="none"
        stroke="black"
        d="M247.74,-439.89C257.82,-422.83 270.23,-399.27 277,-376.8 284.74,-351.09 288.28,-321.25 289.86,-297.17"
      />
      <polygon
        fill="black"
        stroke="black"
        points="290.43,-287.23 294.35,-297.47 290.14,-292.23 289.86,-297.22 289.86,-297.22 289.86,-297.22 290.14,-292.23 285.37,-296.96 290.43,-287.23 290.43,-287.23"
      />
      <text
        text-anchor="start"
        x="270"
        y="-400"
        font-family="Times"
        font-size="14.00"
      />
      <text
        text-anchor="start"
        x="273.5"
        y="-400"
        font-family="Times"
        font-style="italic"
        font-size="14.00"
      >
        e
      </text>
      <text
        text-anchor="start"
        x="279.71"
        y="-400"
        font-family="Times"
        font-size="14.00"
      >
        ₁
      </text>
    </g>
    <!-- positive -->
    <g
      id="node5"
      class="node"
    >
      <title>positive</title>
      <ellipse
        fill="#ffffff"
        stroke="black"
        cx="36"
        cy="-160.8"
        rx="36"
        ry="36"
      />
      <text
        text-anchor="start"
        x="27.64"
        y="-157.6"
        font-family="Times"
        font-style="italic"
        font-size="14.00"
        fill="#000000"
      >
        v
      </text>
      <text
        text-anchor="start"
        x="33.86"
        y="-157.6"
        font-family="Times"
        font-size="14.00"
        fill="#000000"
      >
        ₅
      </text>
    </g>
    <!-- if2&#45;&gt;positive -->
    <g
      id="edge4"
      class="edge"
    >
      <title>if2&#45;&gt;positive</title>
      <path
        fill="none"
        stroke="black"
        d="M110.83,-313.15C96.3,-283.77 72.77,-236.18 55.97,-202.2"
      />
      <polygon
        fill="black"
        stroke="black"
        points="51.64,-193.44 60.11,-200.41 53.86,-197.93 56.08,-202.41 56.08,-202.41 56.08,-202.41 53.86,-197.93 52.04,-204.4 51.64,-193.44 51.64,-193.44"
      />
      <text
        text-anchor="start"
        x="96"
        y="-247.6"
        font-family="Times"
        font-style="italic"
        font-size="14.00"
      >
        e
      </text>
      <text
        text-anchor="start"
        x="102.21"
        y="-247.6"
        font-family="Times"
        font-size="14.00"
      >
        ₆
      </text>
    </g>
    <!-- hidden31 -->
    <g
      id="node6"
      class="node"
    >
      <title>hidden31</title>
      <polygon
        fill="none"
        stroke="none"
        points="162,-196.8 90,-196.8 90,-124.8 162,-124.8 162,-196.8"
      />
      <text
        text-anchor="start"
        x="118.81"
        y="-157.6"
        font-family="Times"
        font-style="italic"
        font-size="14.00"
        fill="#000000"
      >
        f
      </text>
      <text
        text-anchor="start"
        x="122.69"
        y="-157.6"
        font-family="Times"
        font-size="14.00"
        fill="#000000"
      >
        ₃
      </text>
    </g>
    <!-- if2&#45;&gt;hidden31 -->
    <!-- zero -->
    <g
      id="node7"
      class="node"
    >
      <title>zero</title>
      <ellipse
        fill="#ffffff"
        stroke="black"
        cx="216"
        cy="-160.8"
        rx="36"
        ry="36"
      />
      <text
        text-anchor="start"
        x="207.64"
        y="-157.6"
        font-family="Times"
        font-style="italic"
        font-size="14.00"
        fill="#000000"
      >
        v
      </text>
      <text
        text-anchor="start"
        x="213.86"
        y="-157.6"
        font-family="Times"
        font-size="14.00"
        fill="#000000"
      >
        ₄
      </text>
    </g>
    <!-- if2&#45;&gt;zero -->
    <g
      id="edge6"
      class="edge"
    >
      <title>if2&#45;&gt;zero</title>
      <path
        fill="none"
        stroke="black"
        d="M137.57,-313.54C152.76,-284.15 177.54,-236.2 195.18,-202.08"
      />
      <polygon
        fill="black"
        stroke="black"
        points="199.73,-193.28 199.14,-204.23 197.43,-197.72 195.14,-202.16 195.14,-202.16 195.14,-202.16 197.43,-197.72 191.14,-200.1 199.73,-193.28 199.73,-193.28"
      />
      <text
        text-anchor="start"
        x="187"
        y="-247.6"
        font-family="Times"
        font-style="italic"
        font-size="14.00"
      >
        e
      </text>
      <text
        text-anchor="start"
        x="193.21"
        y="-247.6"
        font-family="Times"
        font-size="14.00"
      >
        ₄
      </text>
    </g>
    <!-- end -->
    <g
      id="node9"
      class="node"
    >
      <title>end</title>
      <ellipse
        fill="#ffffff"
        stroke="black"
        cx="216"
        cy="-36"
        rx="36"
        ry="36"
      />
      <text
        text-anchor="start"
        x="207.64"
        y="-32.8"
        font-family="Times"
        font-style="italic"
        font-size="14.00"
        fill="#000000"
      >
        v
      </text>
      <text
        text-anchor="start"
        x="213.86"
        y="-32.8"
        font-family="Times"
        font-size="14.00"
        fill="#000000"
      >
        ₆
      </text>
    </g>
    <!-- positive&#45;&gt;end -->
    <g
      id="edge7"
      class="edge"
    >
      <title>positive&#45;&gt;end</title>
      <path
        fill="none"
        stroke="black"
        d="M63.81,-137.58C69.43,-133.26 75.36,-128.82 81,-124.8 112.78,-102.17 150.04,-78.12 177.35,-60.92"
      />
      <polygon
        fill="black"
        stroke="black"
        points="185.49,-55.81 179.41,-64.94 181.25,-58.47 177.02,-61.13 177.02,-61.13 177.02,-61.13 181.25,-58.47 174.62,-57.32 185.49,-55.81 185.49,-55.81"
      />
      <text
        text-anchor="start"
        x="129"
        y="-95.2"
        font-family="Times"
        font-size="14.00"
      />
      <text
        text-anchor="start"
        x="132.5"
        y="-95.2"
        font-family="Times"
        font-style="italic"
        font-size="14.00"
      >
        e
      </text>
      <text
        text-anchor="start"
        x="138.71"
        y="-95.2"
        font-family="Times"
        font-size="14.00"
      >
        ₇
      </text>
    </g>
    <!-- zero&#45;&gt;end -->
    <g
      id="edge8"
      class="edge"
    >
      <title>zero&#45;&gt;end</title>
      <path
        fill="none"
        stroke="black"
        d="M216,-124.61C216,-111.38 216,-96.15 216,-82.14"
      />
      <polygon
        fill="black"
        stroke="black"
        points="216,-72.19 220.5,-82.19 216,-77.19 216,-82.19 216,-82.19 216,-82.19 216,-77.19 211.5,-82.19 216,-72.19 216,-72.19"
      />
      <text
        text-anchor="start"
        x="216"
        y="-95.2"
        font-family="Times"
        font-size="14.00"
      />
      <text
        text-anchor="start"
        x="219.5"
        y="-95.2"
        font-family="Times"
        font-style="italic"
        font-size="14.00"
      >
        e
      </text>
      <text
        text-anchor="start"
        x="225.71"
        y="-95.2"
        font-family="Times"
        font-size="14.00"
      >
        ₅
      </text>
    </g>
    <!-- negative&#45;&gt;end -->
    <g
      id="edge9"
      class="edge"
    >
      <title>negative&#45;&gt;end</title>
      <path
        fill="none"
        stroke="black"
        d="M284.94,-214.92C279.97,-189.48 271.96,-154.41 261,-124.8 254.89,-108.28 246.42,-90.87 238.49,-75.95"
      />
      <polygon
        fill="black"
        stroke="black"
        points="233.89,-67.47 242.61,-74.12 236.28,-71.87 238.66,-76.27 238.66,-76.27 238.66,-76.27 236.28,-71.87 234.7,-78.41 233.89,-67.47 233.89,-67.47"
      />
      <text
        text-anchor="start"
        x="281"
        y="-157.6"
        font-family="Times"
        font-style="italic"
        font-size="14.00"
      >
        e
      </text>
      <text
        text-anchor="start"
        x="287.21"
        y="-157.6"
        font-family="Times"
        font-size="14.00"
      >
        ₂
      </text>
    </g>
  </g>
</svg>
